<?xml version="1.0" encoding="utf-8"?>
<!-- Generator: Adobe Illustrator 19.0.1, SVG Export Plug-In . SVG Version: 6.00 Build 0)  -->
<svg version="1.1" id="Layer_1" xmlns="http://www.w3.org/2000/svg" xmlns:xlink="http://www.w3.org/1999/xlink" x="0px" y="0px"
	 viewBox="0 0 488.5 439.3" style="enable-background:new 0 0 488.5 439.3;" xml:space="preserve">
<style type="text/css">
	.st0{fill:#235325;}
	.st1{fill:#38976D;}
	.st2{fill:#8CC63F;}
	.st3{fill:#D9E021;}
	.st4{fill:#C2F92D;}
</style>
<g>
	<path class="st3" d="M433.3,331.2c-12.2,0.7-24.4,1.4-36.6-0.2c-5.9-0.8-11.7-2-16.9-5.6c-6-4.2-8.7-9.9-9.5-16.9
		c-0.8-7.5,0.4-14.9,2.6-22c2.4-7.9,5.4-15.6,8.2-23.3c2.5-6.9,5.3-13.7,7.8-20.7c3.4-9.7,5.8-19.6,7.7-29.7
		c2.2-11.6,3.5-23.3,3.8-35c0.4-18.5-1.7-36.7-6.8-54.6c-3.9-13.6-9.4-26.5-16.9-38.4c-3.1-5-6.5-9.9-10.2-14.4
		c-4.5-5.3-9.4-10.3-14.3-15.2c-2.6-2.6-5.5-4.9-8.5-7.2c-3.4-2.6-6.8-5.1-10.4-7.4c-4.2-2.6-8.5-5.2-13-7.4
		c-5.9-2.8-11.9-5.7-18.1-7.7c-8.5-2.8-17.1-5.4-25.8-7.1c-9-1.8-18.1-2.7-27.3-3.5c-13.1-1.1-26.2-0.8-39.3,0.4
		c-8.9,0.8-17.8,1.2-26.4,3.9c-7,2.2-14,4-20.5,7.4c-5.1,2.7-10.3,5.1-15.4,7.9c-4.2,2.3-8.3,4.9-12.3,7.5c-3.7,2.4-7.2,5-10.8,7.5
		c-6.4,4.5-12.3,9.5-18,14.9c-5.3,4.9-10.3,10-14.4,16c-1.7,2.5-3.2,5.2-4.5,8c-1.5,3.3-1.3,6.3,0.9,9.6c4.5,6.4,7.8,13.5,10.6,20.8
		c3.3,8.7,5.4,17.7,5.9,27.1c0.9,16.6-3.5,32-11.9,46.2c-3.5,6-7.6,11.6-12.5,16.6c-0.8,0.8-1.5,1.8-2.1,2.8c-1.1,2-0.7,3.8,1.2,5
		c1.4,0.9,2.9,1.5,4.4,2.2c3.8,1.8,7.8,3.5,11.6,5.4c4.3,2.1,7.3,5.5,9.9,9.4c0.9,1.4,1.4,2.9,1.3,4.6c-0.3,3.5-0.4,7-0.9,10.4
		c-0.7,4.9-0.2,9.5,2.1,14c1.6,3,2.7,6.3,3.6,9.6c1.3,4.4,1.4,8.9-1,12.9c-2.8,4.9-4.6,10.1-5.8,15.6c-0.8,3.5-1.2,7.2-0.1,10.7
		c0.8,2.3,2.1,4.3,3,6.6c0.8,2.1,2,3.9,3.9,4.9c2.8,1.4,5.6,2.9,8.6,3.6c3.8,0.9,7.7,1.2,11.5,1.4c9.1,0.6,18.3,0.7,27.5,1.5
		c5.3,0.4,10.9,0.9,15.1,4.8c2.1,1.9,4.3,4.1,5.6,6.6c3,5.7,4.1,12.1,4.1,18.4c0,8.8-0.4,17.7-0.8,26.5c-0.4,8.3-1.1,16.6-1.4,25
		c-0.1,3,0.3,6.1,1.2,9c1.3,4,3,4.9,6.6,4.6c5.7-0.5,11.4-1.1,17.1-1.3c14.3-0.5,28.7-1,43.1-1.2c16.5-0.2,33,0.2,49.3,2.4
		c3.5,0.5,7,0.9,10.6,1.3c1.8,0.2,2.3-0.2,2.3-2c0-0.6-0.1-1.1-0.1-1.7c0-4.9-0.1-9.9,0.2-14.8c0.3-4.5,0.5-4.4,4.8-3.1
		c5.4,1.7,10.8,3.8,16.4,5c12.3,2.6,24.6,2.9,36.8-1c6.1-2,12.3-3.9,17.7-7.5c3.8-2.5,7.6-4.9,11.3-7.6c3-2.3,5.8-4.9,8.7-7.4
		c5.2-4.6,9.9-9.8,14.1-15.4c3.7-5,7.5-9.8,10.8-15c4.3-6.7,8.3-13.6,12.3-20.5c0.7-1.2,1.3-2.6,2-4.2
		C442.4,330.6,437.8,331,433.3,331.2z M214.4,96.7c10.9-2.7,21.7-5.3,32.6-7.9c1.9-0.4,3.7-1,5.6-1.4c4.8-1,9.6,1.8,10.8,6.4
		c1.3,4.8-1.3,9.8-6.2,11c-12.8,3.2-25.8,6.3-38.7,9.4c-0.6,0.1-1.2,0.1-1.5,0.1c-4.8,0-8.5-3.4-9.2-8
		C207.2,102.1,210,97.8,214.4,96.7z M202.4,133.1c0.4-3.8,3.1-6.7,7.4-7.8c23.9-5.8,47.8-11.5,71.6-17.2c3.2-0.8,6.4-1.6,9.6-2.2
		c5.6-1.1,10.6,3.1,10.6,8.9c0,4.5-2.8,7.7-7.6,8.9c-9.9,2.4-19.9,4.8-29.9,7.2c-16.5,4-33.1,7.9-49.6,11.9
		C207.3,144.5,201.8,140,202.4,133.1z M202.4,161.8c0-4.4,2.7-7.7,7.3-8.8c16.5-4,33.1-8,49.6-11.9c11.3-2.7,22.6-5.4,33.9-8.2
		c3.7-0.9,7.1-0.4,9.8,2.7c2.4,2.7,2.9,5.9,1.6,9.2c-1.2,3.2-3.7,4.8-7,5.6c-22.4,5.3-44.7,10.7-67.1,16.1c-5.5,1.3-10.9,2.7-16.4,4
		C207.7,171.9,202.4,168,202.4,161.8z M285.6,252.2c-2.6,2.8-5.5,5.3-8.4,7.8c-1.2,1-1.8,1.8-1.8,3.4c0.1,3.9-0.1,7.8,0.1,11.7
		c0.2,3.9-1.6,6.2-4.9,7.8c-1.1,0.5-2.2,1.1-3.4,1.4c-1.6,0.4-2.7,1.1-3.3,2.8c-0.7,2.2-2.6,3.2-4.9,3.2c-3.5,0-7,0-10.4,0
		c-2.5,0-4.2-1.3-5.3-3.5c-0.5-0.9-1.4-1.6-2.3-2.1c-1.4-0.7-2.9-1.1-4.3-1.8c-3.2-1.6-4.8-4-4.7-7.7c0.2-3.9,0.2-7.8,0-11.7
		c-0.1-1.2-0.8-2.5-1.7-3.4c-2.9-2.9-6-5.5-8.8-8.4c-2.4-2.5-3.3-5.8-3.2-9.4c0.1-4.9,0-9.7,0-14.6c0-3,0.8-3.7,3.7-3.7
		c10.6,0,21.2,0,31.8,0c10.3,0,20.7,0,31,0c3.9,0,4.3,0.4,4.3,4.4c0,4.7-0.1,9.4,0,14.1C289.3,246.2,288.1,249.5,285.6,252.2z
		 M291.8,200.5c-3.4,2.1-6.8,4.3-9.9,6.7c-1.9,1.5-3.8,3.3-4.8,5.4c-1.3,2.7-3.1,3.1-5.8,3c-4.3-0.2-8.7-0.1-13-0.1
		c-0.2,0-0.5-0.1-1.6-0.3c1-3,1.5-6.2,3-8.6c2.8-4.4,6.2-8.3,9.4-12.3c0.5-0.7,1.6-1,2.5-1.2c7.2-1.8,14.3-3.4,21.5-5.2
		c1.6-0.4,2.2,0.1,2.7,1.4C297.5,193.4,295.8,198,291.8,200.5z M297.3,178c-18.9,4.5-37.8,9.1-56.7,13.6c-0.8,0.2-1.6,0.5-2.8,0.8
		c4.6,5.5,8.2,11.2,9.9,18c0.4,1.5,0.5,2.9,0.9,4.9h-18.1c-2.7-9-8.9-14.6-16.2-19.4c-3.6-2.4-5.7-5.4-4.9-9.8
		c0.7-4.4,3.8-6.5,8-7.5c25.2-6,50.5-12.1,75.7-18.2c5.8-1.4,10.7,1.3,12,6.5C306.2,172.1,303.1,176.6,297.3,178z"/>
</g>
</svg>
