<?xml version="1.0" encoding="utf-8"?>
<!-- Generator: Adobe Illustrator 19.0.1, SVG Export Plug-In . SVG Version: 6.00 Build 0)  -->
<svg version="1.1" id="Layer_1" xmlns="http://www.w3.org/2000/svg" xmlns:xlink="http://www.w3.org/1999/xlink" x="0px" y="0px"
	 viewBox="0 0 488.5 439.3" style="enable-background:new 0 0 488.5 439.3;" xml:space="preserve">
<style type="text/css">
	.st0{fill:#235325;}
	.st1{fill:#38976D;}
	.st2{fill:#8CC63F;}
	.st3{fill:#D9E021;}
	.st4{fill:#C2F92D;}
</style>
<g>
	<path class="st4" d="M108.8,278.7c-3.9,0-7,0-10.5,0c0,1.7,0,3.2,0,4.6c0,32.4,0,64.7,0,97.1c0,12-5.7,17.7-17.7,17.7
		c-1.6,0-3.2,0-4.8,0c-10.2,0-16.4-6.2-16.4-16.5c0-32.7,0-65.5,0-98.2c0-1.4,0-2.9,0-4.6c-3.6,0-6.7,0-10.3,0c0-1.5,0-2.7,0-3.9
		c0-42.9,0-85.7,0-128.6c0-17.4,11.1-29.9,27.8-31.5c6.1-0.6,11.7,1,16.6,4.4c3.8,2.6,7.5,5.6,10.7,8.9c11.7,12,23.1,24.2,34.7,36.3
		c0.5-0.3,1-0.6,1.4-0.9c1.1-0.6,2.3-1.3,3.4-1.9c12.6-7.3,25.1-14.6,37.7-21.8c9.2-5.3,20-1,22.6,8.8c1.6,6.2-0.7,13-6.3,16.3
		c-17.5,10.4-35.2,20.6-52.9,30.7c-5.3,3-13,1.5-17.6-3c-5.1-4.9-10-10-15-15c-0.8-0.8-1.7-1.6-3.2-3
		C108.8,209.5,108.8,243.8,108.8,278.7z"/>
	<path class="st4" d="M395.6,282c-3.5,0.4-6.6,0.8-10.1,1.2c-2.3-15.8-4.6-31.3-6.8-46.9c-2.2-15.6-4.5-31.1-6.8-47.6
		c-3.8,3.8-7.4,7.1-10.6,10.6c-3.2,3.6-7.1,5.7-11.8,6.9c-18.3,4.7-36.5,9.7-54.8,14.5c-10.1,2.6-19.4-5.2-18.7-15.5
		c0.4-6.2,4.8-11.5,11.4-13.2c16.5-4.5,33-8.8,49.4-13.3c2.3-0.6,4.7-2,6.4-3.7c7-6.8,13.8-13.8,20.8-20.6c1.7-1.7,2.3-3.3,2.2-5.7
		c-1-16.5,9.8-30,25.5-32.2c16.1-2.3,31.3,8.7,33.7,24.9c6.4,43.9,12.7,87.9,19,131.8c0,0.3-0.1,0.7-0.1,1.3c-2.1,0.4-4.2,0.9-6.4,1
		c-2.9,0.1-3.6,1.4-3.5,4.1c0.1,33.6-0.2,67.2,0.2,100.7c0.1,11.2-7.6,18.7-17.9,17.7c-1.7-0.2-3.4,0-5.1,0c-9.7-0.1-16-6.4-16-16.1
		c0-31.7,0-63.5,0-95.2C395.6,285.2,395.6,283.8,395.6,282z"/>
	<path class="st4" d="M196.8,347.9c0-9.8,0-19.5,0-29.3c0.1-11.9,8.5-20.2,20.4-20.3c19.5,0,39.1-0.1,58.6,0
		c11.7,0,20.2,8.3,20.2,20c0.1,19.8,0.1,39.5,0,59.3c-0.1,11.5-8.3,20-19.8,20.1c-19.9,0.2-39.8,0.2-59.7,0
		c-11.5-0.1-19.6-8.7-19.7-20.2C196.7,367.7,196.8,357.8,196.8,347.9z"/>
	<path class="st4" d="M280.1,189.1c-9.1,9.3-11.2,16.9-7.4,25.3c3.8,8.4,11.1,12.1,23,11.5c0.1,1,0.2,2.1,0.2,3.1
		c0,12.8,0,25.6,0,38.4c-0.1,12.6-8.3,20.7-20.9,20.7c-19,0-38.1,0-57.1,0c-12.8,0-21-8.3-21-21.1c0-19,0-38.1,0-57.1
		c0-12.5,8.3-20.8,20.9-20.9c19,0,38.1,0,57.1,0C276.4,189.1,277.8,189.1,280.1,189.1z"/>
	<path class="st4" d="M152,150.5c-4.4-7.8-9.1-15.1-12.8-22.9c-3.8-8-0.9-17.5,6.1-23c1.4-1.1,3-2.1,4.6-3
		c15.6-9.3,31.3-18.5,47-27.7c12-7.1,23-4.1,30.1,7.9c9.4,16,18.9,31.9,28.3,47.9c7,11.8,4.1,22.9-7.8,29.9
		c-16.4,9.7-32.8,19.4-49.2,29c-8.9,5.2-18.5,3.7-25.5-4c0.9-0.6,1.7-1.2,2.6-1.7c7.7-4.5,15.5-8.8,23.2-13.3
		c10.3-6,13.7-17.9,8-27.7c-5.7-9.8-17.7-12.7-28-6.8c-4.3,2.5-8.6,5-13,7.6C161.3,145.2,157,147.7,152,150.5z"/>
	<path class="st4" d="M48.8,78.1c0.1-19.2,10.6-33,25.2-35.8c9.5-1.8,17.6,1.3,24.4,7.9c13.7,13.4,13.4,37.6-0.4,50.8
		C85.6,113,67,111.5,56.3,97.7C51.2,91.1,48.9,83.5,48.8,78.1z"/>
	<path class="st4" d="M402.4,80c-0.1,9.3-3.1,17.5-9.6,24.2c-11.5,12-29.3,11.8-40.7-0.2c-12.3-13-12.7-34.8-0.8-48.2
		c12.1-13.8,32.2-13.2,43.6,1.4C400.1,63.8,402.5,71.5,402.4,80z"/>
</g>
</svg>
