<?xml version="1.0" encoding="utf-8"?>
<!-- Generator: Adobe Illustrator 19.0.1, SVG Export Plug-In . SVG Version: 6.00 Build 0)  -->
<svg version="1.1" id="Layer_1" xmlns="http://www.w3.org/2000/svg" xmlns:xlink="http://www.w3.org/1999/xlink" x="0px" y="0px"
	 viewBox="0 0 488.5 439.3" style="enable-background:new 0 0 488.5 439.3;" xml:space="preserve">
<style type="text/css">
	.st0{fill:#235325;}
	.st1{fill:#38976D;}
	.st2{fill:#8CC63F;}
	.st3{fill:#D9E021;}
	.st4{fill:#C2F92D;}
</style>
<g>
	<path class="st2" d="M313.7,165.9c-0.1-17.8,10-28.5,26.9-33.3c-6.1-14.4-12-28.2-18-42.3c-15.5,8.8-30.2,8.4-42.8-4
		c-12.7-12.5-13.1-27.2-4.6-42.5c-1.6-0.7-2.6-1.2-3.6-1.6c-11.5-4.6-22.9-9.4-34.4-14c-1.2-0.5-2.3-0.9-3.5-1.9h-1.2
		c-3.6,14-11,24.5-27.1,27c-20.3,3.2-33.2-6.7-39.2-26.2c-14.2,6-28,11.9-42.2,17.9c8.8,15.3,8.4,30.1-4,42.8
		c-12.5,12.8-27.3,13.2-42.7,4.7c-5.8,14.4-11.4,28.2-17.1,42.3c1.2,0.5,2.3,1,3.3,1.4c3.3,1.5,6.8,2.5,9.8,4.5
		c8.7,5.9,13.3,14.5,14.3,24.9c1.4,14.5-8,29.7-19.8,33.2c-2.4,0.7-4.6,2-7,3.1c6,14.1,11.8,27.8,17.8,42c15.3-8.8,30-8.5,42.7,3.9
		c12.7,12.4,13.3,27.2,4.7,42.7c14.4,5.8,28.3,11.4,42.6,17.2c4.6-17,15.2-27.3,33-27.5c17.8-0.2,28.7,9.9,33.5,26.9
		c14.4-6.1,28.2-12,42.3-18c-8.5-14.6-8.6-28.8,2.6-41.2c12.5-14,27.7-15.1,44-6.1c5.8-14.4,11.4-28.2,17.2-42.5
		C324,194.3,313.9,183.6,313.7,165.9z M200.2,222c-30.3-0.3-54.7-25-54.5-55.3c0.2-30.5,24.9-54.9,55.4-54.7
		c30.2,0.2,54.7,25,54.5,55.3C255.4,197.8,230.6,222.3,200.2,222z"/>
	<path class="st2" d="M415.6,312.5c-0.9,0-2.2-0.6-2.5-1.2c-1.9-4.4-3.5-8.9-5.5-14c3.4-3.3,7.2-6.9,10.7-10.2
		c-6.7-6.8-13.3-13.4-20.4-20.5c-3.5,3.6-7.1,7.3-10.5,10.9c-4-1.7-7.8-3.6-11.8-4.8c-2.6-0.8-3.3-2.2-3.2-4.7
		c0.2-4.1,0.1-7.5,0.1-12.5H344c0,5,0.1,9.4-0.1,13.9c0,0.9-0.7,2.3-1.4,2.6c-4.3,1.9-8.8,3.6-13.9,5.6c-3.1-3.5-6.7-7.3-9.9-10.8
		c-7,7-13.6,13.6-20.7,20.6c3.6,3.4,7.4,7,10.9,10.2c-1.8,4.3-3.6,8-4.8,11.9c-0.8,2.8-1.8,3.5-4.5,3.3c-4-0.2-8.7-0.1-11.7-0.1V341
		c4,0,8.8-0.1,13.2,0.1c0.9,0,2.1,0.7,2.4,1.4c1.9,4.4,3.5,8.9,5.6,14.1c-3.4,3.2-7.2,6.8-10.5,9.9c6.7,6.7,13.3,13.3,20.1,20.1
		c2.9-3,6-6.2,9.3-9.4c0.6-0.6,2-1,2.7-0.7c4.3,1.7,8.1,3.6,13.1,5.6v15.1h28.5c0-4,0.1-8.8,0-13.1c0-1.8,0.6-2.6,2.3-3.2
		c3.5-1.2,6.9-2.6,10.2-4.2c1.7-0.8,2.7-0.8,4,0.6c3,3.3,6.1,6.4,9,9.4c7-7,13.5-13.6,20.6-20.8c-3.6-3.3-7.4-6.8-10.9-10
		c1.8-4.6,3.6-8.5,5-12.6c0.6-1.8,1.2-2.6,3.3-2.5c4.4,0.2,9.1,0.1,13.1,0.1v-28.4C425,312.5,420.1,312.6,415.6,312.5z M358.2,347.7
		c-11.6,0-21-9.6-20.9-21.1c0.1-11.5,9.6-21,21.2-20.9c11.6,0,20.9,9.5,20.9,21.1C379.2,338.4,369.8,347.7,358.2,347.7z"/>
</g>
</svg>
