<?xml version="1.0" encoding="utf-8"?>
<!-- Generator: Adobe Illustrator 19.0.1, SVG Export Plug-In . SVG Version: 6.00 Build 0)  -->
<svg version="1.1" id="Layer_1" xmlns="http://www.w3.org/2000/svg" xmlns:xlink="http://www.w3.org/1999/xlink" x="0px" y="0px"
	 viewBox="0 0 488.5 439.3" style="enable-background:new 0 0 488.5 439.3;" xml:space="preserve">
<style type="text/css">
	.st0{fill:#235325;}
	.st1{fill:#38976D;}
	.st2{fill:#8CC63F;}
	.st3{fill:#D9E021;}
	.st4{fill:#C2F92D;}
</style>
<g>
	<path class="st0" d="M458.9,285.6c-4,1-8,2.3-11.8,4c-26.6,11.8-51.3,27-75.3,43.4c-8.6,5.9-17.8,10.6-28.1,12.8
		c-23.3,5.1-46.9,7.7-70.6,9.4c-16.6,1.1-33.2,1.6-49.8,2.1c-4.2,0.2-6.6-2.1-6.8-5.3c-0.2-3.5,2.1-5.8,6.5-6.2
		c16.4-1.6,32.8-3.2,49.2-4.9c17.7-1.8,35.5-3.3,53.2-5.4c11.6-1.4,20-11.9,19.2-23.3c-0.8-12.4-10.3-21.7-22.3-21.9
		c-11.9-0.1-23.8-0.3-35.7-0.4c-14.6-0.1-14.6-0.1-24-11.4c-12.4-15.1-18.6-32.1-14.3-51.6c4.8-22.1,16.6-40.5,33.8-54.9
		c23.2-19.5,50.6-31.7,78.6-42.6c1-0.4,2.1-0.3,3.2-0.4c0.1,0.4,0.3,0.7,0.4,1.1c-1.4,0.9-2.7,1.9-4.1,2.7
		c-20.6,11.6-40.8,23.8-58.9,39.2c-11.8,10.1-20.7,22.5-27.8,36.4c21,11.6,42.5,13,64.7,4.8c29.5-10.8,50.7-31.1,65.9-58.2
		c24.7-43.7,29.8-89.5,14.6-137.4c-1-3.1-1.6-7.7-5.6-7.4c-2.4,0.2-5.2,3.4-6.8,5.9c-14.8,22.8-34.7,38.4-61.5,44
		c-12,2.5-24.2,4.1-36.3,6c-18.7,3.1-36,9.4-50.9,21.4c-16,13-25.4,29.5-26.6,50.3c-0.7,12.1,2.7,23.2,8.5,33.7
		c2,3.6,3.4,7.2,1.3,11.1c-4.3,8-8.9,15.9-13.3,23.8c-4.8-3.8-6.5-8.7-5.3-15.6c4.7-27.3-13.6-52.4-40.9-56.2c-7.5-1-15.4,0-23,0
		c-19.1,0-35-7-47-22.1c-3.5-4.4-5.9-9.7-9-14.3c-1.2-1.8-3.2-3.8-4.9-4c-1.3-0.1-3.6,2.4-4.2,4.2c-2.4,7.1-5.2,14.3-6.1,21.7
		c-3.6,30,4.5,57.1,22.6,80.9c14.7,19.3,34.1,32.2,58.7,35.7c9.7,1.4,19,0,27.5-5.8c-15.5-25-38.2-42.3-60-60.7
		c1.2-0.1,2.2,0,3.1,0.2c18.4,4.5,34,14.2,48.4,26c20.1,16.5,34.5,36.6,40.4,62.3c2.3,10.1,6.8,19.3,12.5,27.9
		c0.6,0.9,1.1,1.7,1.7,2.7c-10,1.6-24.1,0.1-37.8-3.8c-23.5-6.8-47.4-9.8-71.6-4.4c-12,2.7-23.6,7.2-36.1,11.1
		c-5.2-7.8-13.3-10.4-23.1-9.6c-11.7,1-23.4,1.6-35.2,2.2c-15.5,0.8-25.5,12.3-24.3,27.8c2.2,29.1,4.2,58.2,6.2,87.3
		c1,14.3,11.6,24.4,26,23.6c13.3-0.7,26.7-1.9,40-3c5.7-0.5,10.9-2.9,13.5-7.8c2.7-4.9,6.1-5.7,10.8-4.8c0.8,0.2,1.6,0.1,2.4,0.1
		c57.5,2.6,115,5.3,172.5,7.8c17.5,0.8,34-3.1,49.1-12.3c43.5-26.5,87-52.9,130.5-79.2c7.8-4.7,12.1-10.9,13.8-20.2
		C481.1,292,470.2,282.8,458.9,285.6z M61,402.3c-7.6-0.1-13.5-6.2-13.4-13.8c0.1-7.6,6.2-13.5,13.7-13.4
		c7.6,0.1,13.4,6.2,13.3,13.8C74.7,396.6,68.7,402.5,61,402.3z"/>
	<path class="st0" d="M439.6,272.5c-24.6,14-49.3,28-73.5,41.8c-0.6-3.9-1.4-8.8-1.9-13.7c-0.1-0.8,0.9-2.2,1.7-2.6
		c18.2-9,36.4-18.2,54.8-26.8C427.3,268.1,434.1,268.8,439.6,272.5z"/>
	<path class="st0" d="M355.5,284.9c-2.3-2.7-5.2-6.1-8.1-9.4c2.5-1.1,6-2.7,9.6-4.1c9.3-3.7,18.6-7.3,27.9-10.8
		c7-2.7,13.8-2.5,20.4,1.9C388.5,270,372.2,277.4,355.5,284.9z"/>
</g>
</svg>
