<?xml version="1.0" encoding="utf-8"?>
<!-- Generator: Adobe Illustrator 19.0.1, SVG Export Plug-In . SVG Version: 6.00 Build 0)  -->
<svg version="1.1" id="Layer_1" xmlns="http://www.w3.org/2000/svg" xmlns:xlink="http://www.w3.org/1999/xlink" x="0px" y="0px"
	 viewBox="0 0 488.5 439.3" style="enable-background:new 0 0 488.5 439.3;" xml:space="preserve">
<style type="text/css">
	.st0{fill:#235325;}
	.st1{fill:#38976D;}
	.st2{fill:#8CC63F;}
	.st3{fill:#D9E021;}
	.st4{fill:#C2F92D;}
</style>
<g>
	<path class="st1" d="M195.7,126.8c16.5,0,29.8-13.4,29.9-29.9c-0.1-16.5-13.4-29.8-29.9-29.9c-16.5,0.1-29.9,13.4-29.9,29.9
		C165.8,113.4,179.2,126.8,195.7,126.8z"/>
	<path class="st1" d="M86.7,283.9v-91.7l53.4-28.8v27.2c0,5.2,1.4,7.4,3.4,9.3l30.5,33.7c13.7,13.9,33.4-5.3,20.9-19.2l-27-29.9
		v-56.9c-0.2-17.5-23.8-33.5-40.8-24.8l-71.4,38.5c-9.5,5.4-13.2,14.7-13.3,24.3v118.5C42.5,316.5,86.7,316.5,86.7,283.9z"/>
	<path class="st1" d="M291.4,126.8c16.5,0,29.9-13.4,29.9-29.9c0-16.5-13.4-29.8-29.9-29.9c-16.4,0.1-29.8,13.4-29.9,29.9
		C261.6,113.4,275,126.8,291.4,126.8z"/>
	<path class="st1" d="M319.2,184.5l-27,29.9c-12.4,13.9,7.2,33.1,20.9,19.2l30.5-33.7c2-1.9,3.4-4.1,3.4-9.3v-27.2l53.4,28.8v91.7
		c0,32.7,44.2,32.7,44.3,0.3V165.6c0-9.5-3.8-18.9-13.3-24.3L360,102.8c-16.9-8.7-40.6,7.3-40.8,24.8L319.2,184.5L319.2,184.5z"/>
	<path class="st1" d="M354.8,308.4l-32.7-16.3l-1.3-0.6c-0.6-0.2-1.3-0.4-2-0.4c-1.5,0-2.9,0.6-4,1.5l-1.2,1.4l-46.3,51.8h-10.3
		l15.3-37.4h-24.4h-11h-24.4l15.3,37.4h-10.3L171.2,294l-1.2-1.4c-1.1-0.9-2.4-1.5-4-1.5c-0.7,0-1.3,0.2-2,0.4l-1.3,0.6l-32.7,16.3
		H17.7v49.9h224.7h224.7v-49.9H354.8z"/>
	<path class="st1" d="M236.2,158.6c0,49.9,0,99.9,0,149.8c0,8,12.4,8,12.4,0c0-49.9,0-99.9,0-149.8
		C248.6,150.6,236.2,150.6,236.2,158.6L236.2,158.6z"/>
	<path class="st1" d="M231.5,267.3c-9.7-9.7-26.5-8.8-26.5-8.8s-0.9,16.7,8.8,26.5c9.8,9.8,26.5,8.8,26.5,8.8
		S241.2,277.1,231.5,267.3z"/>
	<path class="st1" d="M231.5,204.9c-9.7-9.7-26.5-8.8-26.5-8.8s-0.9,16.7,8.8,26.5c9.8,9.8,26.5,8.8,26.5,8.8
		S241.2,214.6,231.5,204.9z"/>
	<path class="st1" d="M253.4,242.3c9.7-9.7,26.5-8.8,26.5-8.8s0.9,16.7-8.8,26.5c-9.8,9.8-26.5,8.8-26.5,8.8
		S243.6,252.1,253.4,242.3z"/>
	<path class="st1" d="M253.4,179.9c9.7-9.7,26.5-8.8,26.5-8.8s0.9,16.7-8.8,26.5c-9.8,9.8-26.5,8.8-26.5,8.8
		S243.6,189.7,253.4,179.9z"/>
</g>
</svg>
